<svg xmlns="http://www.w3.org/2000/svg" xmlns:xlink="http://www.w3.org/1999/xlink" version="1.1" baseProfile="tiny" x="0px" y="0px" viewBox="-7.5 16.5 24 30" xml:space="preserve"><polygon fill="none" points="-2.2,30.5 0.5,30.5 0.5,29.5 -1.8,29.5 "/><circle cx="10" cy="20.5" r="2"/><path d="M16.5,23.3l-1-4c-0.1-0.5-0.7-0.9-1.2-0.7c-0.5,0.1-0.9,0.7-0.7,1.2l0.7,3l-3.9,0.8H9.6l-3.9-0.8l0.7-3  c0.1-0.5-0.2-1.1-0.7-1.2c-0.5-0.1-1.1,0.2-1.2,0.7l-1,4c-0.1,0.3,0,0.5,0.1,0.8c0.1,0.2,0.4,0.4,0.6,0.4l3.2,0.6v14.4  c0,0.6,0.4,1,1,1s1-0.4,1-1V33c0-0.3,0.2-0.5,0.5-0.5s0.5,0.2,0.5,0.5v6.5c0,0.6,0.4,1,1,1s1-0.4,1-1V25.1l3.2-0.6  c0.3-0.1,0.5-0.2,0.6-0.4C16.5,23.8,16.5,23.5,16.5,23.3z"/><path d="M-4.5,26.5V26c0-0.3-0.2-0.5-0.5-0.5s-0.5,0.2-0.5,0.5v0.5c-0.6,0-1,0.4-1,1c0,0.1,0,0.1,0,0.2h0v0.8c0,0.4,0.3,0.8,0.7,0.9  c0,0,0,0,0,0l-1.4,4.1c-0.2,0.5,0.1,0.9,0.7,0.9h2c0.5,0,1.1-0.4,1.3-0.9l0.7-2.1h3c0.6,0,1-0.4,1-1v-1h2c0.6,0,1-0.4,1-1h1v-2H-4.5  z M0.5,30.5h-2.7l0.3-1h2.3V30.5z"/><text x="-7.5" y="55.5" fill="#000000" font-size="5px" font-weight="bold" font-family="'Helvetica Neue', Helvetica, Arial-Unicode, Arial, Sans-serif">Created by Rflor</text><text x="-7.5" y="60.5" fill="#000000" font-size="5px" font-weight="bold" font-family="'Helvetica Neue', Helvetica, Arial-Unicode, Arial, Sans-serif">from the Noun Project</text></svg>