<svg xmlns="http://www.w3.org/2000/svg" xmlns:xlink="http://www.w3.org/1999/xlink" version="1.1" x="0px" y="0px" viewBox="0 0 100 125" enable-background="new 0 0 100 100" xml:space="preserve"><g><g><g><g><g><path d="M73.533,28.877c0.326,2.989-1.827,5.666-4.821,5.991c-2.985,0.322-5.674-1.834-5.987-4.823       c-0.334-2.984,1.828-5.668,4.814-5.997C70.536,23.729,73.215,25.888,73.533,28.877z"/><path d="M74.159,34.869l0.007,0.039c2.303-0.327,4.527,1.109,5.107,3.414l3.561,14.214c0.044,0.178,3.122,13.476,3.122,13.476       L95,74.991l-2.477,2.975l-10.998-8.173c-0.449-0.383-0.771-0.896-0.916-1.468c0,0-2.461-10.093-2.502-10.095l-6,6.183       l-2.062,13.778l-4.014-0.35l0.423-14.896c0.059-0.631,0.313-1.223,0.734-1.688l6.617-6.854l-2.758-11.008l-4.429,3.541       c-0.431,0.344-0.968,0.522-1.519,0.502l-10.74-1.066l0.113-3.221l9.937-0.344l6.162-4.925L64.7,41.482       c-0.587,0.061-1.177-0.094-1.647-0.456l-8.384-7.443l1.866-2.477l8.513,5.642L74.159,34.869z"/></g></g></g><g><path d="M24.6,30.265c2.979-0.004,5.383-2.416,5.379-5.393c0-2.969-2.413-5.375-5.389-5.373     c-2.973,0.004-5.379,2.416-5.375,5.387C19.217,27.861,21.63,30.269,24.6,30.265z"/><path d="M31.196,56.289l2.118-1.182c0,0-0.714-3.485-0.767-3.866l-1.635-11.69l4.008,1.64l2.195,8.876L35.89,50.75     c-0.397,0.221-0.684,0.585-0.809,1.023c-0.125,0.438-0.071,0.897,0.15,1.297l0.736,1.332l-4.44,2.478     c-0.747,0.417-1.017,1.369-0.601,2.116l2.744,4.919c0.799-0.024,5.111-0.246,10.035-2.78l-0.206-0.369     c-0.154-0.273-0.054-0.63,0.223-0.783l0.524-0.293c0.277-0.15,0.63-0.054,0.784,0.227l0.206,0.369     c4.728-2.855,7.168-6.383,7.608-7.061l-2.746-4.923c-0.417-0.747-1.369-1.018-2.116-0.601l-4.452,2.484l-0.736-1.333     c-0.458-0.821-1.498-1.117-2.32-0.658l-0.42,0.234l-1.305-10.595l-10.551-4.312c-0.829-0.45-1.8-0.652-2.803-0.511     c-0.539,0.074-1.04,0.247-1.498,0.488l-0.011-0.02l-8.4,5.107l-9.352-2.927L5,38.514l10.914,5.142l5.872-3.574l1.742,12.424     c0.023,0.171,0.074,0.331,0.116,0.497l-4.836,10.205l-3.34,16.117l3.895,1.176l4.834-15.465l3.708-7.782l2.209,8.946l5.166,1.993     l-4.946-8.865C29.734,58.253,30.121,56.889,31.196,56.289z M40.969,49.082c0.331-0.184,0.752-0.066,0.938,0.266l0.736,1.333     l-5.787,3.228l-0.736-1.334c-0.089-0.159-0.11-0.345-0.06-0.522c0.051-0.178,0.166-0.324,0.326-0.414l1.473-0.822l2.413-0.628     L40.19,49.52L40.969,49.082z"/><polygon points="39.653,69.883 47.461,72.896 48.972,69.539 44.503,67.177    "/><path d="M55.712,58.367L53.109,53.7c-0.721,1.052-3.194,4.327-7.636,7.007l0.238,0.427c0.154,0.277,0.054,0.63-0.223,0.784     l-0.524,0.292c-0.277,0.154-0.63,0.054-0.784-0.224l-0.238-0.426c-4.625,2.385-8.729,2.771-10.006,2.832l2.604,4.668     c0.417,0.748,1.369,1.019,2.116,0.602l16.455-9.18C55.857,60.066,56.129,59.114,55.712,58.367z"/></g></g></g><text x="0" y="115" fill="#000000" font-size="5px" font-weight="bold" font-family="'Helvetica Neue', Helvetica, Arial-Unicode, Arial, Sans-serif">Created by Juan Pablo Bravo</text><text x="0" y="120" fill="#000000" font-size="5px" font-weight="bold" font-family="'Helvetica Neue', Helvetica, Arial-Unicode, Arial, Sans-serif">from the Noun Project</text></svg>