<svg xmlns="http://www.w3.org/2000/svg" xmlns:xlink="http://www.w3.org/1999/xlink" version="1.1" x="0px" y="0px" viewBox="0 0 100 125" enable-background="new 0 0 100 100" xml:space="preserve"><path d="M12.792,19.6c-3.687,0-6.686,3-6.686,6.688c0,3.687,2.999,6.691,6.686,6.691c3.686,0,6.694-3.004,6.694-6.691  C19.488,22.6,16.478,19.6,12.792,19.6z"/><path d="M40.066,10.964c-3.688,0-6.687,3-6.687,6.689c0,3.688,2.999,6.692,6.687,6.692c3.686,0,6.691-3.004,6.691-6.692  C46.759,13.964,43.751,10.964,40.066,10.964z"/><path d="M5.853,60.824v26.314H19.79V60.824h5.218l0.001-19.892c0-3.308-2.681-5.989-5.987-5.989H6.54  c-3.306,0-5.987,2.681-5.987,5.989L0.58,60.824H5.853z"/><path d="M67.726,39.658c0,0-16.881-11.632-16.911-11.65c-0.978-0.701-2.987-1.688-4.865-1.688H34.074  c-3.298,0-5.973,2.68-5.973,5.986L28.09,55.565h5.275v31.573h14.856V34.943h0.013l15.43,10.612c0.619,0.424,1.327,0.63,2.026,0.63  c1.142,0,2.261-0.543,2.953-1.551C69.764,43.004,69.351,40.776,67.726,39.658z"/><path d="M92.506,65.577l6.488-18.92c1.313-3.83-0.728-8.014-4.547-9.329l-2.094-0.718c2.736-0.573,5.035-2.524,5.967-5.239  c0.697-2.028,0.56-4.21-0.389-6.143c-0.943-1.93-2.579-3.375-4.606-4.07c-0.843-0.291-1.72-0.436-2.605-0.436  c-3.432,0-6.489,2.181-7.605,5.429c-0.694,2.028-0.561,4.208,0.382,6.139c0.296,0.602,0.661,1.15,1.081,1.65l-1.692-0.581  c-0.77-0.263-1.569-0.397-2.376-0.397c-3.135,0-5.927,1.994-6.944,4.96l-6.522,18.91l4.893,1.681l-8.19,23.627l14.549,5.001h20.521  v-2.051H80.332l7.323-21.18L92.506,65.577z M85.905,27.108c0.705-2.057,2.64-3.438,4.814-3.438c0.56,0,1.114,0.095,1.65,0.279  c1.28,0.439,2.316,1.354,2.915,2.577c0.6,1.225,0.687,2.606,0.245,3.888c-0.704,2.056-2.644,3.438-4.824,3.438l0,0  c-0.559,0-1.11-0.094-1.645-0.278c-1.281-0.439-2.318-1.354-2.912-2.577C85.551,29.771,85.464,28.39,85.905,27.108z M77.635,83.793  l-10.133-3.484l8.19-23.627l-4.896-1.683l5.559-16.12c0.608-1.776,2.279-2.97,4.156-2.97c0.482,0,0.96,0.081,1.419,0.237  l11.559,3.97c2.283,0.786,3.502,3.29,2.714,5.583l-5.527,16.127l-4.84-1.665L77.635,83.793z"/><text x="0" y="115" fill="#000000" font-size="5px" font-weight="bold" font-family="'Helvetica Neue', Helvetica, Arial-Unicode, Arial, Sans-serif">Created by Luis Prado</text><text x="0" y="120" fill="#000000" font-size="5px" font-weight="bold" font-family="'Helvetica Neue', Helvetica, Arial-Unicode, Arial, Sans-serif">from the Noun Project</text></svg>