<svg xmlns="http://www.w3.org/2000/svg" xmlns:xlink="http://www.w3.org/1999/xlink" version="1.1" x="0px" y="0px" viewBox="0 0 258.493 274.3625" style="enable-background:new 0 0 258.493 219.49;" xml:space="preserve"><g><ellipse transform="matrix(0.9829 -0.1839 0.1839 0.9829 -0.9321 34.9475)" cx="187.926" cy="22.499" rx="22.495" ry="22.494"/><path d="M255.334,198.512c-14.425-16.211-22.368-34.474-26.617-48.696c-2.125-7.099-3.325-13.163-3.985-17.363   c-0.22-1.394-0.375-2.56-0.49-3.513c1.42-2.202,2.594-4.964,3.425-8.422c3.557-22.081,2.672-35.263-3.244-55.716   c-4.388-14.849-16.549-20.023-25.17-18.27c-1.1,0.224-2.128,0.611-3.081,1.135c-2.268,0.69-4.209,2.37-5.136,4.75   c-0.001,0.003-0.003,0.007-0.004,0.012l0.002,0.001c-0.145,0.378-1.787,4.174-4.424,7.444c-1.356,1.707-2.952,3.239-4.528,4.215   c-1.602,0.986-3.05,1.464-4.778,1.474c-1.464-0.006-3.287-0.352-5.795-1.662c-2.494-1.308-5.614-3.63-9.213-7.425   c-3.041-3.205-8.105-3.336-11.309-0.294c-3.205,3.041-3.337,8.105-0.294,11.31c2.857,3.008,5.67,5.499,8.478,7.52   c1.006-0.334,2.067-0.528,3.163-0.528c1.932,0,3.812,0.557,5.437,1.613c5.32,3.45,9.247,4.85,11.983,5.332   c3.384-0.347,6.467-1.398,9.128-2.811c0.355-0.371,0.707-0.778,1.052-1.221c0.762-0.976,1.491-2.113,2.146-3.362   c2.693-5.028,3.669-10.868,3.677-10.921c0.719-4.948,4.966-8.629,9.892-8.629c0.266,0,0.534,0.036,0.801,0.058   c0.213,0.017,0.426,0.016,0.637,0.046c2.641,0.379,4.98,1.766,6.579,3.906c1.601,2.138,2.274,4.771,1.893,7.415   c-0.24,1.561-0.968,5.569-2.763,10.562c-1.92,5.212-5.285,12.805-12.386,18.677c-2.33,1.928-4.957,3.437-7.752,4.527   c0.491,7.396,0.424,14.893-0.823,21.86c-0.106,1.028-0.178,1.978-0.225,2.872c-3.171,2.525-6.571,5.67-9.963,9.559   c-12.204,13.899-23.572,37.391-23.487,73.026c0,6.902,5.596,12.5,12.501,12.5c6.904,0,12.502-5.598,12.502-12.5   c0.085-30.539,9.132-47.053,17.345-56.614c0.642-0.738,1.283-1.434,1.917-2.088c0.651,2.707,1.425,5.619,2.344,8.694   c5.003,16.694,14.31,38.349,31.884,58.137c4.585,5.162,12.486,5.626,17.646,1.04c5.161-4.587,5.624-12.488,1.04-17.647H255.334z"/><path d="M210.914,75.791c1.992-5.541,2.608-9.815,2.664-10.17c0.629-4.372-2.406-8.428-6.778-9.056   c-0.135-0.02-0.269-0.025-0.403-0.038c-4.211-0.394-8.037,2.571-8.652,6.802l-0.002,0l-0.002,0.012h0.001   c-0.045,0.428-1.134,6.473-3.893,11.621c-0.09,0.172-0.186,0.339-0.28,0.508c-0.943,1.709-2.044,3.267-3.235,4.516   c-0.483,0.506-0.979,0.965-1.485,1.358c-1.924,1.457-3.782,2.262-6.721,2.3c-2.287,0.009-5.436-0.614-9.517-2.534   c-1.795-0.844-3.768-1.937-5.932-3.34c-1.614-1.048-3.465-1.438-5.24-1.239c-2.298,0.258-4.468,1.505-5.825,3.598   c-2.404,3.705-1.35,8.66,2.358,11.064c8.776,5.689,16.742,8.438,24.155,8.452c0.053,0,0.105,0,0.158,0   c3.704,0,7.158-0.774,10.223-2.055c2.49-1.041,4.725-2.415,6.625-3.988C205.594,88.263,208.885,81.301,210.914,75.791z"/><ellipse transform="matrix(0.1839 -0.9829 0.9829 0.1839 35.4743 87.725)" cx="70.568" cy="22.499" rx="22.494" ry="22.495"/><path d="M4.197,216.159c5.159,4.586,13.06,4.121,17.647-1.038v-0.003c17.572-19.788,26.879-41.443,31.882-58.137   c0.919-3.076,1.693-5.987,2.345-8.696c1.389,1.434,2.806,3.061,4.206,4.901c7.477,9.904,14.999,26.064,15.058,53.803   c0,6.902,5.596,12.5,12.5,12.5c6.904,0,12.5-5.598,12.5-12.5c0.085-35.635-11.283-59.127-23.487-73.026   c-3.392-3.889-6.791-7.033-9.962-9.558c-0.046-0.894-0.119-1.844-0.225-2.873c-1.533-8.561-1.297-17.924-0.413-26.911   c4.362,2.369,9.645,3.824,15.539,3.824c0.058,0,0.115,0,0.173,0c5.171-0.002,10.789-1.024,16.92-3.159   c4.173-1.452,6.377-6.012,4.925-10.185c-1.453-4.173-6.012-6.378-10.185-4.925c-4.77,1.66-8.617,2.269-11.661,2.269   c-2.793-0.024-4.923-0.483-6.71-1.235c-2.404-0.136-4.776-0.498-7.113-1.067c-4.157-1.013-8.202-2.685-12.088-5.05   c-3.722-2.275-6.231-4.509-7.535-5.791c-0.261-0.256-0.491-0.489-0.654-0.66c-1.842-1.986-2.787-4.535-2.687-7.204   c0.102-2.669,1.236-5.138,3.196-6.954c1.854-1.722,4.267-2.671,6.796-2.671c2.751,0,5.406,1.15,7.29,3.154l0.014,0.012l0.062,0.062   c0.144,0.138,0.394,0.371,0.737,0.669c0.531,0.458,1.652,1.367,3.188,2.301c0.959,0.586,2.146,1.212,3.507,1.762   c-1.208-6.538-5.009-12.083-10.722-13.243c-8.621-1.753-20.782,3.421-25.17,18.27c-5.916,20.453-6.801,33.635-3.244,55.716   c0.831,3.459,2.004,6.221,3.425,8.423c-0.486,4.013-1.764,12.162-4.887,22.218c-4.341,14.021-12.232,31.646-26.207,47.354   C-1.43,203.671-0.964,211.572,4.197,216.159z"/><path d="M62.705,57.836c-0.277-0.219-0.531-0.427-0.745-0.61c-0.381-0.33-0.657-0.589-0.816-0.743   c-0.079-0.076-0.127-0.128-0.147-0.147l-0.001,0c-3.01-3.204-8.043-3.379-11.269-0.386c-1.79,1.659-2.644,3.947-2.548,6.208   c0.019,0.449,0.08,0.896,0.174,1.337c0.291,1.361,0.933,2.665,1.948,3.76c0.351,0.371,3.024,3.217,7.788,6.129   c2.957,1.801,6.786,3.649,11.351,4.787c0.945,0.236,1.923,0.44,2.931,0.608c1.928,0.321,3.965,0.508,6.107,0.51   c0.063,0.001,0.127,0.001,0.19,0.001c9.64,0,20.828-4.073,31.64-14.31c3.219-3.026,3.379-8.087,0.355-11.308   c-3.023-3.221-8.087-3.381-11.308-0.357c-8.697,8.081-15.473,9.92-20.877,9.975c-2.63,0.004-5.051-0.509-7.209-1.267   c-1.826-0.642-3.467-1.455-4.857-2.303C64.331,59.061,63.419,58.4,62.705,57.836z"/></g><text x="0" y="234.49" fill="#000000" font-size="5px" font-weight="bold" font-family="'Helvetica Neue', Helvetica, Arial-Unicode, Arial, Sans-serif">Created by Gan Khoon Lay</text><text x="0" y="239.49" fill="#000000" font-size="5px" font-weight="bold" font-family="'Helvetica Neue', Helvetica, Arial-Unicode, Arial, Sans-serif">from the Noun Project</text></svg>